<svg xmlns="http://www.w3.org/2000/svg" viewBox="0 0 1500 1500" width="1500" height="1500">
	<style>
		tspan { white-space:pre }
		.shp0 { fill: #0066e3 } 
	</style>
	<path id="Layer" fill-rule="evenodd" class="shp0" d="M67.78 750C67.78 335.67 403.64 0 817.78 0C863.7 0.01 909.53 4.2 954.7 12.53C1083.67 36.35 1112.22 208.43 998.71 273.03C877.5 342.01 801.15 470.53 801.15 612.4C801.15 857.1 1023.58 1041.52 1264.84 995.58C1392.84 971.2 1483.15 1120.29 1400.33 1222.34C1260.11 1395.11 1048.51 1500 817.78 1500C403.45 1500 67.78 1164.14 67.78 750ZM208.4 750C208.4 1086.55 481.23 1359.37 817.78 1359.37C1008.88 1359.37 1179.42 1271.38 1291.14 1133.72C964.16 1195.99 660.52 945.94 660.52 612.4C660.52 414.61 768.72 242.11 929.15 150.81C893.04 144.14 855.82 140.63 817.78 140.63C481.23 140.63 208.4 413.45 208.4 750Z" />
</svg>