<?xml version="1.0" encoding="utf-8"?>
<!-- Generator: Adobe Illustrator 16.0.0, SVG Export Plug-In . SVG Version: 6.00 Build 0)  -->
<!DOCTYPE svg PUBLIC "-//W3C//DTD SVG 1.1//EN" "http://www.w3.org/Graphics/SVG/1.1/DTD/svg11.dtd">
<svg version="1.1" id="Layer_1" focusable="false" xmlns="http://www.w3.org/2000/svg" xmlns:xlink="http://www.w3.org/1999/xlink"
	 x="0px" y="0px" width="1500px" height="1500px" viewBox="0 0 1500 1500" enable-background="new 0 0 1500 1500"
	 xml:space="preserve">
<path fill="#FFFFFF" d="M817.778,1500c230.73,0,442.33-104.895,582.551-277.661c82.822-102.044-7.494-251.139-135.494-226.761
	c-241.254,45.946-463.688-138.48-463.688-383.18c0-141.867,76.348-270.387,197.561-339.363
	c113.51-64.6,84.957-236.684-44.01-260.505C909.533,4.202,863.703,0.007,817.778,0C403.637,0,67.779,335.669,67.779,750
	C67.779,1164.141,403.449,1500,817.778,1500z M817.778,140.625c38.043,0,75.262,3.519,111.375,10.189
	c-160.43,91.298-268.631,263.795-268.631,461.584c0,333.539,303.635,583.594,630.621,521.32
	c-111.727,137.66-282.258,225.656-473.365,225.656c-336.547,0-609.374-272.827-609.374-609.375S481.231,140.625,817.778,140.625z"/>
</svg>
