<?xml version="1.0" encoding="utf-8"?>
<!-- Generator: Adobe Illustrator 16.0.0, SVG Export Plug-In . SVG Version: 6.00 Build 0)  -->
<!DOCTYPE svg PUBLIC "-//W3C//DTD SVG 1.1//EN" "http://www.w3.org/Graphics/SVG/1.1/DTD/svg11.dtd">
<svg version="1.1" id="Layer_1" focusable="false" xmlns="http://www.w3.org/2000/svg" xmlns:xlink="http://www.w3.org/1999/xlink"
	 x="0px" y="0px" width="1500px" height="1500px" viewBox="0 0 1500 1500" enable-background="new 0 0 1500 1500"
	 xml:space="preserve">
<path fill="#FFFFFF" d="M1447.852,650.098l-175.195-118.652l40.137-208.008c7.617-38.672-4.688-78.516-32.52-106.641
	c-28.125-27.832-67.969-40.137-106.055-32.52l-207.715,40.137L848.145,48.926c-44.238-65.332-152.051-65.332-196.289,0
	L533.496,224.414l-207.422-40.137c-38.965-7.324-78.516,4.688-106.348,32.813s-40.137,67.676-32.52,106.348l40.137,208.008
	L52.149,650.098C19.336,672.363,0,708.984,0,748.535s19.629,76.172,52.148,98.145l175.195,118.652l-40.137,208.008
	c-7.617,38.672,4.688,78.516,32.52,106.348s67.09,40.137,106.348,32.52l207.422-40.137l118.359,175.488
	C673.828,1480.371,710.742,1500,750,1500s76.172-19.629,98.145-52.148l118.359-175.488l207.715,40.137
	c39.258,7.91,78.515-4.688,106.347-32.52s39.845-67.676,32.521-106.348l-40.138-208.008l175.195-118.652
	c32.52-21.973,52.148-58.887,52.148-98.145C1499.999,708.984,1480.663,672.363,1447.852,650.098L1447.852,650.098z M1117.09,900.879
	l51.563,267.188l-266.602-51.563L750,1341.797l-152.051-225.586l-266.309,51.563l51.563-267.188l-225-152.344l225-152.344
	l-51.563-267.188l266.602,51.563l151.758-225l152.051,225.293l266.602-51.563l-51.563,266.895l224.999,152.344L1117.09,900.879z
	 M750,445.313c-167.871,0-304.688,136.816-304.688,304.688S582.129,1054.688,750,1054.688S1054.688,917.871,1054.688,750
	S917.871,445.313,750,445.313z M750,914.063c-90.527,0-164.063-73.535-164.063-164.063S659.473,585.938,750,585.938
	S914.063,659.473,914.063,750S840.528,914.063,750,914.063z"/>
</svg>
