<svg xmlns="http://www.w3.org/2000/svg" viewBox="0 0 1500 1500" width="1500" height="1500">
	<style>
		tspan { white-space:pre }
		.shp0 { fill: #0066e3 } 
	</style>
	<path id="Layer" fill-rule="evenodd" class="shp0" d="M1447.85 650.1C1480.66 672.36 1500 708.98 1500.29 748.83C1500.29 788.09 1480.66 825 1448.14 846.97L1272.95 965.63L1313.09 1173.63C1320.41 1212.31 1308.4 1252.15 1280.57 1279.98C1252.73 1307.81 1213.48 1320.41 1174.22 1312.5L966.5 1272.36L848.14 1447.85C826.17 1480.37 789.26 1500 750 1500C710.74 1500 673.83 1480.37 651.86 1447.56L533.5 1272.07L326.07 1312.21C286.82 1319.82 247.56 1307.52 219.73 1279.69C191.89 1251.86 179.59 1212.01 187.21 1173.34L227.34 965.33L52.15 846.68C19.63 824.71 0 788.09 0 748.53C0 708.98 19.34 672.36 52.15 650.1L227.34 531.45L187.21 323.44C179.59 284.77 191.89 245.21 219.73 217.09C247.56 188.96 287.11 176.95 326.07 184.28L533.5 224.41L651.86 48.93C696.09 -16.41 803.91 -16.41 848.14 48.93L966.5 224.41L1174.22 184.28C1212.31 176.66 1252.15 188.96 1280.27 216.8C1308.11 244.92 1320.41 284.77 1312.79 323.44L1272.66 531.45L1447.85 650.1ZM1342.09 748.24L1117.09 595.9L1168.65 329L902.05 380.57L750 155.27L598.24 380.27L331.64 328.71L383.2 595.9L158.2 748.24L383.2 900.59L331.64 1167.77L597.95 1116.21L750 1341.8L902.05 1116.5L1168.65 1168.07L1117.09 900.88L1342.09 748.24ZM1054.69 750C1054.69 917.87 917.87 1054.69 750 1054.69C582.13 1054.69 445.31 917.87 445.31 750C445.31 582.13 582.13 445.31 750 445.31C917.87 445.31 1054.69 582.13 1054.69 750ZM914.06 750C914.06 659.47 840.53 585.94 750 585.94C659.47 585.94 585.94 659.47 585.94 750C585.94 840.53 659.47 914.06 750 914.06C840.53 914.06 914.06 840.53 914.06 750Z" />
</svg>